<svg id="レイヤー_1" data-name="レイヤー 1" xmlns="http://www.w3.org/2000/svg" viewBox="0 0 184.91 55"><defs><style>.cls-1{fill:#d81c16;}.cls-2,.cls-3{fill:#fff;}.cls-3{font-size:17.1px;font-family:YuGo-Bold-83pv-RKSJ-H, YuGothic;}.cls-4{letter-spacing:-0.01em;}.cls-5{letter-spacing:-0.12em;}.cls-6{letter-spacing:-0.07em;}</style></defs><rect class="cls-1" width="184.91" height="55" rx="27.5"/><path class="cls-2" d="M239.49,179.6v11.69a1.79,1.79,0,0,1-1.79,1.79h-7.19a1.79,1.79,0,0,1-1.79-1.79v-2.38h1.19v2.38a.6.6,0,0,0,.6.6h7.19a.6.6,0,0,0,.59-.6V179.6a.6.6,0,0,0-.59-.6h-7.19a.6.6,0,0,0-.6.6V182h-1.19V179.6a1.79,1.79,0,0,1,1.79-1.79h7.19A1.79,1.79,0,0,1,239.49,179.6Zm-8.93,7.82.84.84,2.81-2.81-2.81-2.82-.84.85,1.37,1.37h-7.72V186h7.72Z" transform="translate(-103.15 -157.82)"/><text class="cls-3" transform="translate(46.71 33.4)">入<tspan class="cls-4" x="17.1" y="0">学</tspan><tspan class="cls-5" x="34.08" y="0">す</tspan><tspan class="cls-6" x="49.13" y="0">る</tspan></text></svg>